<svg width="95" height="30" viewBox="0 0 95 30" fill="none" xmlns="http://www.w3.org/2000/svg">
<path fill-rule="evenodd" clip-rule="evenodd" d="M95 15L94.9993 16.5L94.9985 17.1212L94.9963 17.5979L94.9941 17.9996L94.9904 18.3534L94.9867 18.6731L94.9816 18.967L94.9757 19.2403L94.9698 19.4969L94.9624 19.7395L94.9543 19.9699L94.9455 20.1899L94.9359 20.4007L94.9264 20.6033L94.9153 20.7985L94.9035 20.9872L94.891 21.1698L94.8778 21.3468L94.8638 21.5187L94.849 21.6859L94.8336 21.8486L94.8174 22.0072L94.8004 22.1621L94.782 22.3132L94.7636 22.4609L94.7445 22.6054L94.7246 22.7469L94.7032 22.8854L94.6819 23.0212L94.6598 23.1543L94.6362 23.2848L94.6126 23.4129L94.5876 23.5387L94.5618 23.6623L94.536 23.7836L94.5088 23.9029L94.4808 24.0202L94.4521 24.1354L94.4226 24.2489L94.3924 24.3605L94.3615 24.4703L94.3298 24.5784L94.2974 24.6848L94.2643 24.7896L94.2297 24.8928L94.1951 24.9944L94.159 25.0946L94.1229 25.1932L94.0854 25.2903L94.0471 25.3861L94.008 25.4804L93.9683 25.5734L93.9277 25.6651L93.8865 25.7555L93.8438 25.8446L93.8011 25.9324L93.7569 26.0189L93.712 26.1043L93.6663 26.1884L93.6199 26.2714L93.5728 26.3532L93.5249 26.4338L93.4756 26.5134L93.4262 26.5918L93.3754 26.669L93.3239 26.7453L93.2716 26.8204L93.2178 26.8945L93.1641 26.9675L93.1088 27.0395L93.0529 27.1104L92.9962 27.1804L92.938 27.2493L92.8791 27.3172L92.8202 27.3842L92.759 27.4502L92.6979 27.5152L92.6353 27.5793L92.572 27.6424L92.5079 27.7045L92.4424 27.7658L92.3761 27.826L92.3091 27.8854L92.2406 27.9439L92.1714 28.0015L92.1014 28.0581L92.03 28.1139L91.9578 28.1687L91.8849 28.2227L91.8105 28.2759L91.7346 28.3281L91.6581 28.3795L91.5807 28.43L91.5019 28.4797L91.4224 28.5284L91.3414 28.5763L91.2589 28.6235L91.1757 28.6697L91.091 28.7152L91.0056 28.7598L90.9187 28.8035L90.8303 28.8464L90.7412 28.8886L90.6506 28.9298L90.5586 28.9703L90.465 29.01L90.37 29.0489L90.2743 29.0869L90.1764 29.1241L90.0777 29.1606L89.9768 29.1962L89.8752 29.231L89.7713 29.2651L89.666 29.2984L89.5592 29.3308L89.451 29.3625L89.3405 29.3934L89.2286 29.4235L89.1152 29.4528L88.9988 29.4813L88.8817 29.5091L88.7617 29.5361L88.6402 29.5623L88.5157 29.5877L88.3898 29.6124L88.2609 29.6362L88.1298 29.6594L87.9965 29.6818L87.8603 29.7033L87.7211 29.7241L87.5797 29.7442L87.4346 29.7635L87.2859 29.7821L87.1341 29.7998L86.9795 29.8168L86.8204 29.833L86.6569 29.8486L86.489 29.8633L86.3167 29.8772L86.1392 29.8905L85.9566 29.903L85.7673 29.9146L85.5714 29.9256L85.3682 29.9358L85.1576 29.9452L84.9366 29.9539L84.7061 29.9619L84.4638 29.9691L84.2068 29.9755L83.9336 29.9812L83.6398 29.9861L83.3209 29.9903L82.9689 29.9938L82.569 29.9965L82.0977 29.9983L81.4901 29.9995L72.9434 30L71.0717 29.9997L70.4289 29.9986L69.9418 29.9968L69.5333 29.9942L69.1745 29.9909L68.8508 29.9869L68.5535 29.9821L68.2773 29.9765L68.0182 29.9701L67.7734 29.9631L67.5409 29.9552L67.319 29.9467L67.1065 29.9374L66.9022 29.9272L66.7054 29.9165L66.5152 29.9048L66.3314 29.8925L66.153 29.8794L65.9798 29.8655L65.8114 29.851L65.6475 29.8356L65.4877 29.8195L65.3319 29.8025L65.1796 29.7849L65.0309 29.7665L64.8854 29.7473L64.743 29.7274L64.6035 29.7067L64.4669 29.6852L64.3329 29.663L64.2015 29.64L64.0725 29.6162L63.9459 29.5917L63.8216 29.5663L63.6994 29.5403L63.5794 29.5135L63.4613 29.4858L63.3453 29.4574L63.2311 29.4282L63.1188 29.3982L63.0083 29.3675L62.8996 29.3359L62.7925 29.3036L62.687 29.2705L62.5832 29.2365L62.4809 29.2018L62.3802 29.1663L62.281 29.13L62.1832 29.0929L62.0868 29.055L61.9918 29.0162L61.8982 28.9767L61.806 28.9363L61.7151 28.8952L61.6255 28.8533L61.5371 28.8104L61.45 28.7668L61.3641 28.7223L61.2794 28.677L61.196 28.6309L61.1136 28.5839L61.0325 28.5361L60.9525 28.4875L60.8736 28.438L60.7959 28.3876L60.7191 28.3363L60.6436 28.2842L60.5691 28.2313L60.4956 28.1774L60.4231 28.1227L60.3517 28.0671L60.2813 28.0106L60.212 27.9531L60.1436 27.8948L60.0762 27.8356L60.0099 27.7754L59.9444 27.7144L59.88 27.6524L59.8165 27.5894L59.7539 27.5254L59.6923 27.4607L59.6316 27.3948L59.5718 27.328L59.513 27.2602L59.4551 27.1914L59.3981 27.1217L59.342 27.0508L59.2868 26.979L59.2324 26.9062L59.179 26.8323L59.1264 26.7573L59.0747 26.6813L59.0239 26.6041L58.9739 26.5259L58.9247 26.4466L58.8765 26.3661L58.8291 26.2845L58.7825 26.2017L58.7368 26.1178L58.692 26.0326L58.6478 25.9463L58.6047 25.8587L58.5623 25.7698L58.5207 25.6796L58.4799 25.5881L58.44 25.4953L58.4009 25.4012L58.3626 25.3057L58.3251 25.2087L58.2885 25.1103L58.2525 25.0105L58.2175 24.9091L58.1832 24.8062L58.1497 24.7016L58.117 24.5955L58.0851 24.4876L58.054 24.3782L58.0237 24.2668L57.9942 24.1537L57.9654 24.0387L57.9375 23.9217L57.9102 23.8027L57.8839 23.6817L57.8582 23.5585L57.8334 23.4331L57.8093 23.3053L57.786 23.1752L57.7635 23.0425L57.7417 22.9072L57.7207 22.7692L57.7005 22.6282L57.6811 22.4842L57.6623 22.337L57.6445 22.1863L57.6273 22.0322L57.6109 21.8741L57.5953 21.712L57.5804 21.5456L57.5663 21.3745L57.553 21.1983L57.5404 21.0166L57.5285 20.8291L57.5175 20.6349L57.5072 20.4335L57.4976 20.2241L57.4888 20.0056L57.4807 19.7769L57.4735 19.5364L57.467 19.2823L57.4612 19.0118L57.4561 18.7215L57.4519 18.4063L57.4483 18.0587L57.4456 17.666L57.4436 17.2041L57.4424 16.615L57.4419 15.5986L57.4422 13.6247L57.4431 12.965L57.4449 12.472L57.4474 12.0607L57.4507 11.7004L57.4547 11.3758L57.4595 11.0783L57.4651 10.802L57.4713 10.5429L57.4784 10.2983L57.4862 10.066L57.4947 9.84443L57.504 9.63225L57.5141 9.4284L57.5249 9.23205L57.5365 9.04238L57.5489 8.85892L57.562 8.68103L57.5758 8.50838L57.5905 8.34045L57.6059 8.17702L57.622 8.01772L57.6389 7.86232L57.6566 7.7106L57.675 7.56233L57.6942 7.41733L57.7142 7.2754L57.735 7.13642L57.7565 7.00025L57.7788 6.86674L57.8018 6.7358L57.8256 6.6073L57.8502 6.48115L57.8756 6.35726L57.9018 6.23555L57.9287 6.11594L57.9564 5.99836L57.9849 5.88274L58.0142 5.76901L58.0443 5.65713L58.0751 5.54703L58.1068 5.43866L58.1392 5.33199L58.1725 5.22696L58.2065 5.12352L58.2413 5.02165L58.2769 4.9213L58.3134 4.82244L58.3505 4.72504L58.3886 4.62905L58.4275 4.53447L58.4671 4.44125L58.5076 4.34936L58.5489 4.25879L58.5911 4.16952L58.634 4.08151L58.6778 3.99474L58.7224 3.90919L58.7679 3.82487L58.8142 3.74171L58.8613 3.65973L58.9093 3.5789L58.9581 3.49921L59.0078 3.42063L59.0584 3.34316L59.1098 3.26678L59.1621 3.19147L59.2153 3.11724L59.2693 3.04405L59.3243 2.9719L59.3802 2.90078L59.4369 2.83068L59.4944 2.76158L59.553 2.69348L59.6125 2.62637L59.6729 2.56023L59.7342 2.49506L59.7965 2.43085L59.8596 2.3676L59.9238 2.30529L59.9889 2.24391L60.055 2.18346L60.122 2.12394L60.1901 2.06533L60.2592 2.00762L60.3292 1.95082L60.4003 1.89491L60.4724 1.8399L60.5455 1.78577L60.6197 1.73251L60.695 1.68014L60.7713 1.62862L60.8488 1.57799L60.9273 1.52819L61.0069 1.47926L61.0877 1.43118L61.1696 1.38394L61.2528 1.33755L61.337 1.29199L61.4225 1.24726L61.5093 1.20338L61.5972 1.16031L61.6864 1.11806L61.777 1.07664L61.8687 1.03603L61.9619 0.996248L62.0564 0.957263L62.1523 0.919095L62.2497 0.881722L62.3484 0.84516L62.4487 0.8094L62.5504 0.774435L62.6538 0.74026L62.7587 0.706882L62.8653 0.674294L62.9735 0.642496L63.0835 0.611483L63.1952 0.581256L63.3087 0.551811L63.4242 0.523147L63.5416 0.495262L63.661 0.468154L63.7824 0.441822L63.9061 0.416264L64.0319 0.391479L64.1601 0.367465L64.2908 0.344221L64.4239 0.321745L64.5597 0.300036L64.6982 0.279094L64.8397 0.258916L64.9842 0.239501L65.1319 0.22085L65.283 0.20296L65.4377 0.185831L65.5962 0.16946L65.7587 0.153849L65.9257 0.138996L66.0972 0.1249L66.2739 0.11156L66.456 0.0989768L66.6441 0.0871477L66.8387 0.0760732L67.0405 0.0657526L67.2504 0.0561853L67.4691 0.047371L67.6981 0.039309L67.9388 0.031999L68.1931 0.0254406L68.4635 0.0196335L68.7536 0.0145775L69.0681 0.0102721L69.4145 0.0067172L69.805 0.0039127L70.2623 0.00185839L70.84 0.000554178L71.7811 0L81.239 0.000195827L81.9246 0.00114167L82.4291 0.00283757L82.8474 0.00528362L83.2126 0.00847995L83.5418 0.0124267L83.8423 0.0171241L84.1221 0.0225723L84.3836 0.0287717L84.6303 0.0357225L84.8645 0.0434252L85.0883 0.05188L85.3019 0.0610874L85.5074 0.071048L85.7055 0.081762L85.8969 0.0932302L86.0818 0.105454L86.2607 0.118432L86.4345 0.132167L86.6039 0.146658L86.7689 0.161907L86.9287 0.177914L87.0855 0.19468L87.238 0.212207L87.3875 0.230494L87.5333 0.249545L87.6762 0.269357L87.8161 0.289934L87.9531 0.311277L88.0878 0.333386L88.2197 0.356263L88.3493 0.379909L88.4759 0.404326L88.6004 0.429514L88.7234 0.455476L88.8434 0.482212L88.962 0.509726L89.0783 0.538018L89.1925 0.567089L89.3052 0.596943L89.4164 0.62758L89.5254 0.659002L89.6321 0.691213L89.7382 0.724213L89.842 0.758002L89.9444 0.792593L90.046 0.827978L90.1454 0.864157L90.2434 0.90114L90.3398 0.938925L90.4348 0.97752L90.5291 1.01693L90.6212 1.05714L90.7125 1.09817L90.8023 1.14002L90.8907 1.1827L90.9783 1.22619L91.0645 1.27051L91.1492 1.31567L91.2324 1.36167L91.3149 1.40851L91.3966 1.45619L91.4769 1.50471L91.5557 1.55409L91.6338 1.60433L91.7103 1.65542L91.7862 1.70738L91.8613 1.76021L91.935 1.81393L92.0071 1.86852L92.0786 1.924L92.1493 1.98037L92.2192 2.03765L92.2877 2.09581L92.3547 2.15491L92.4217 2.21491L92.4873 2.27585L92.5514 2.33771L92.6154 2.40051L92.678 2.46427L92.7399 2.52897L92.8003 2.59465L92.8607 2.66129L92.9196 2.72892L92.9778 2.79754L93.0345 2.86716L93.0912 2.93779L93.1464 3.00945L93.2009 3.08214L93.2546 3.15587L93.3069 3.23067L93.3592 3.30653L93.41 3.38348L93.4601 3.46153L93.5095 3.54068L93.5581 3.62097L93.6052 3.7024L93.6523 3.78499L93.698 3.86875L93.7429 3.95371L93.7871 4.0399L93.8305 4.12731L93.8725 4.21598L93.9145 4.30593L93.9557 4.39718L93.9955 4.48976L94.0345 4.58369L94.0736 4.679L94.1111 4.77572L94.1479 4.87388L94.1833 4.97352L94.2186 5.07466L94.2533 5.17734L94.2871 5.2816L94.3195 5.38749L94.3519 5.49504L94.3829 5.6043L94.4131 5.71533L94.4433 5.82817L94.472 5.94287L94.5 6.05951L94.5272 6.17814L94.5537 6.29885L94.5795 6.42168L94.6045 6.54673L94.6288 6.6741L94.6524 6.80387L94.6745 6.93614L94.6966 7.07102L94.7179 7.20864L94.7378 7.34914L94.7577 7.49265L94.7769 7.63935L94.7945 7.78942L94.8122 7.94303L94.8284 8.10038L94.8439 8.26185L94.8593 8.42752L94.8733 8.59793L94.8866 8.77327L94.8998 8.95403L94.9116 9.14062L94.9227 9.33367L94.933 9.53393L94.9426 9.74197L94.9514 9.95895L94.9595 10.1859L94.9676 10.4243L94.9742 10.6762L94.9801 10.9438L94.9853 11.2307L94.9897 11.5415L94.9926 11.8833L94.9956 12.2677L94.9978 12.7161L94.9993 13.2776L95 14.1534V15ZM72.907 23.25H78.7984C84.3799 23.25 87.6357 19.7143 87.6357 14.9528C87.6357 10.1443 84.4241 6.75 78.8868 6.75H72.907V23.25ZM69.9612 23.25H65.5426V6.75H69.9612V23.25ZM16.168 15C16.168 19.5508 12.9299 23.625 8.06108 23.625C3.19228 23.625 0 19.5984 0 15C0 10.4492 3.23821 6.375 8.10703 6.375C12.9758 6.375 16.168 10.4016 16.168 15ZM1.24016 15C1.24016 19.1219 4.13388 22.5052 8.10703 22.5052C12.0801 22.5052 14.9279 19.1695 14.9279 15C14.9279 10.8781 12.0342 7.49482 8.06108 7.49482C4.08795 7.49482 1.24016 10.8305 1.24016 15ZM21.7592 23.25H20.6202V6.75H21.7364L32.7399 21.105V6.75H33.879V23.25H32.9905L21.7592 8.58855V23.25ZM50.0775 23.25H38.6185V6.75H49.9636V7.88145H39.8031V14.3636H48.9385V15.495H39.8031V22.1185H50.0775V23.25ZM79.6807 20.3584C80.1152 20.3456 80.6101 20.2879 81.1138 20.1581C81.1742 20.1427 81.2353 20.1263 81.2986 20.1085C81.6875 19.9987 82.1087 19.837 82.5417 19.5664C82.6478 19.502 82.7509 19.4329 82.8525 19.3589L82.8488 19.3573C83.1574 19.1288 83.4697 18.8398 83.7797 18.4703C83.9064 18.3187 84.1251 17.9984 84.2488 17.7498C83.9623 17.4404 83.5264 17.186 83.1176 16.9623L83.0742 16.9384C82.8849 16.8343 82.5417 16.6462 82.2221 16.5187C82.1883 16.5052 82.1522 16.4919 82.1161 16.4783C81.8399 16.3745 81.5166 16.2533 81.4842 15.919C81.4592 15.661 81.5873 15.5 81.7405 15.308C81.7773 15.2618 81.8156 15.214 81.8532 15.1625C82.2995 14.5556 82.7192 13.7276 82.6434 12.6068C82.569 11.5065 81.8775 10.6521 80.7205 10.5203C80.5865 10.505 80.4562 10.4984 80.3295 10.5003C80.2028 10.4984 80.0717 10.505 79.9377 10.5203C78.7808 10.6521 78.0893 11.5065 78.0149 12.6068C77.939 13.7276 78.3588 14.5556 78.8051 15.1625C78.8434 15.214 78.8809 15.2618 78.9178 15.308C79.0709 15.5 79.1991 15.661 79.174 15.919C79.1416 16.2533 78.8183 16.3745 78.5422 16.4783V16.4783C78.5061 16.492 78.4707 16.5052 78.4369 16.5187C78.1165 16.6462 77.7741 16.8343 77.5841 16.9384L77.5406 16.9623C76.9338 17.2943 76.2681 17.6938 76.1186 18.2402C75.9352 18.9086 75.8365 19.7476 75.8549 20.3584H76.8911C77.1798 20.3584 77.4765 20.3614 77.7792 20.3644H77.78C78.4015 20.3707 79.0452 20.3771 79.6807 20.3584Z" fill="#4825C2"/>
</svg>
